# xmcd
#
# Track frame offsets: 
#        150
#        20395
#        30987
#        53945
#        70002
#        86272
#        101750
#        119865
#        135267
#        150897
#        170425
#        185262
#
# Disc length: 2647 seconds
#
# Revision: 4
# Processed by: cddbd v1.5.2PL0 Copyright (c) Steve Scherf et al.
# Submitted via: ExactAudioCopy v0.95a4
#
DISCID=8b0a550c
DTITLE=Debbie Davies - Tales From The Austin Motel
DYEAR=1999
DGENRE=Blues
TTITLE0=Just Stepped In The Blues
TTITLE1=I Want To Be Loved
TTITLE2=Bald Headed Baby
TTITLE3=Watch Out What You Do
TTITLE4=I Just Want To Make Love To You
TTITLE5=As The Years Go Passing By
TTITLE6=I'm A Woman
TTITLE7=Half Caf-Decaf
TTITLE8=Atras De Tus Ojos (Behind Your Eyes)
TTITLE9=When You Were Gone
TTITLE10=Percolatin'
TTITLE11=Walking By Myself
EXTD=Year: 1999\n\n\n\n                                               
EXTD=http://debbiedavis.com/\n\n\n\n                        
EXTD=                https://myspace.com/debbiedavis\n\n\n\n
EXTD=                                          www.youtube.c
EXTD=om/debbiedavis
EXTT0=
EXTT1=
EXTT2=
EXTT3=
EXTT4=
EXTT5=
EXTT6=
EXTT7=
EXTT8=
EXTT9=
EXTT10=
EXTT11=
PLAYORDER=
